<svg xmlns="http://www.w3.org/2000/svg" width="30mm" height="30mm" viewBox="0 0 3000 3000" shape-rendering="geometricPrecision" text-rendering="geometricPrecision" image-rendering="optimizeQuality" fill-rule="evenodd" clip-rule="evenodd"><defs><style>.fil1{fill:#000}</style></defs><g id="Слой_x0020_1"><g id="_2021867981728"><circle cx="1500" cy="1500" r="1500" fill="#fffadc"/><path class="fil1" d="M889.68 787.08h423.84c123.58 0 224.69 101.11 224.69 224.7v179.91c0 123.59-101.11 224.7-224.69 224.7H889.68c-123.59 0-224.7-101.11-224.7-224.7v-179.91c0-123.59 101.11-224.7 224.7-224.7zm-.26 249.94c35.02 0 63.41 28.4 63.41 63.42s-28.39 63.41-63.41 63.41c-35.02 0-63.41-28.39-63.41-63.41 0-35.02 28.39-63.42 63.41-63.42zm219.01 0c35.01 0 63.42 28.4 63.42 63.42s-28.41 63.41-63.42 63.41c-35.02 0-63.42-28.39-63.42-63.41 0-35.02 28.4-63.42 63.42-63.42zm219 0c35.03 0 63.42 28.4 63.42 63.42s-28.39 63.41-63.42 63.41c-35.01 0-63.4-28.39-63.4-63.41 0-35.02 28.39-63.42 63.4-63.42z"/><path class="fil1" d="M1017.47 1375.31H791.06v171.26c0 11.42 6.2 21.18 16.24 25.56 10.03 4.37 20.99 2.08 28.67-5.99l181.5-190.83zm1092.85 125.46h-423.84c-123.58 0-224.69 101.11-224.69 224.69v179.91c0 123.59 101.11 224.7 224.69 224.7h423.84c123.59 0 224.7-101.11 224.7-224.7v-179.91c0-123.58-101.11-224.69-224.7-224.69zm-370.11 258.41l120.94 117.15 192.26-232.37 66.07 54.66-251.28 303.73-187.68-181.8 59.69-61.37z"/><path class="fil1" d="M1982.53 2088.99h226.41v171.26c0 11.42-6.2 21.18-16.24 25.56-10.03 4.36-20.99 2.08-28.67-6l-181.5-190.82z"/></g></g></svg>