<svg xmlns="http://www.w3.org/2000/svg" width="30mm" height="30mm" viewBox="0 0 3000 3000" shape-rendering="geometricPrecision" text-rendering="geometricPrecision" image-rendering="optimizeQuality" fill-rule="evenodd" clip-rule="evenodd"><g id="Слой_x0020_1"><g id="_2021307410224"><circle cx="1500" cy="1500" r="1500" fill="#fcf2f2"/><path d="M755.44 1327.3l95.47 254.67 271.69 12.09-212.7 169.49 72.46 262.13-226.92-149.91-226.91 149.91 72.46-262.13-212.7-169.49 271.69-12.09zm1489.11 0l95.46 254.67 271.69 12.09-212.7 169.49 72.46 262.13-226.91-149.91-226.92 149.91 72.46-262.13-212.69-169.49 271.69-12.09zM1500 772.33l95.46 254.66 271.69 12.09-212.69 169.49 72.45 262.13L1500 1320.79l-226.91 149.91 72.45-262.13-212.69-169.49 271.69-12.09z"/></g></g></svg>