<svg xmlns="http://www.w3.org/2000/svg" width="30mm" height="30mm" viewBox="0 0 3000 3000" shape-rendering="geometricPrecision" text-rendering="geometricPrecision" image-rendering="optimizeQuality" fill-rule="evenodd" clip-rule="evenodd"><defs><style>.fil1{fill:#000}</style></defs><g id="Слой_x0020_1"><g id="_2021307419568"><circle cx="1500" cy="1500" r="1500" fill="#ebfaff"/><path class="fil1" d="M2037.67 1458.89c-15.26 78.96-249.98 141.67-537.32 141.67-287.33 0-522.05-62.71-537.3-141.67h-.8c0-199.97-19.69-114.32 147.55-67.75 100.65 28.03 238.79 45.37 390.55 45.37 82.64 0 417.25-8.54 538.11-115.49v137.87h-.79z"/><path class="fil1" d="M1953.51 1107.44c53.55 23.29 84.6 50.98 84.6 80.69 0 82.76-240.92 149.85-538.11 149.85-297.18 0-538.1-67.09-538.1-149.85 0-29.71 31.05-57.4 84.6-80.69 19.12 7.72 40.16 14.77 62.95 21.12 100.64 28.02 238.79 45.37 390.55 45.37 151.76 0 289.92-17.35 390.56-45.37 22.79-6.35 43.83-13.4 62.95-21.12z"/><path d="M2038.11 1058.43v137.88H961.9v-137.88c31.93 28.25 82.74 52.08 147.55 70.13 100.64 28.02 238.79 45.37 390.55 45.37 151.76 0 289.92-17.35 390.56-45.37 64.81-18.05 115.62-41.88 147.55-70.13z"/><path class="fil1" d="M1870.44 896.44c-94.1-26.2-225.03-42.42-370.44-42.42s-276.33 16.22-370.43 42.42c-80.18 22.32-129.8 47.29-129.8 69.56 0 22.27 49.62 47.24 129.8 69.56 94.1 26.2 225.02 42.42 370.43 42.42s276.34-16.22 370.44-42.42c80.18-22.32 129.8-47.29 129.8-69.56 0-22.27-49.62-47.24-129.8-69.56zm167.23 828.77c-15.26 78.96-249.98 141.67-537.32 141.67-287.33 0-522.05-62.71-537.3-141.67h-.8c0-199.98-19.69-114.32 147.55-67.75 100.65 28.02 238.79 45.37 390.55 45.37 82.64 0 417.25-8.55 538.11-115.5v137.88h-.79z"/><path class="fil1" d="M2037.67 1984.11c-15.26 78.96-249.98 141.67-537.32 141.67-287.33 0-522.05-62.71-537.3-141.67h-.8c0-199.98-19.69-114.32 147.55-67.75 100.65 28.02 238.79 45.36 390.55 45.36 82.64 0 417.25-8.54 538.11-115.49v137.88h-.79z"/></g></g></svg>