<svg xmlns="http://www.w3.org/2000/svg" width="15mm" height="15mm" viewBox="0 0 1500 1500" shape-rendering="geometricPrecision" text-rendering="geometricPrecision" image-rendering="optimizeQuality" fill-rule="evenodd" clip-rule="evenodd"><path d="M750 0C336.45 0 0 336.45 0 750c0 413.52 336.46 750 750 750 413.52 0 750-336.48 750-750 0-413.55-336.42-750-750-750zm186.52 776.4H814.5v434.9l-180.8.02V776.41l-85.96-.01V622.69h85.96v-99.42c0-71.2 33.83-182.47 182.47-182.47l133.98.51v149.21H852.9c-15.82 0-38.34 7.92-38.34 41.87v90.33h137.76l-15.8 153.68z" fill="#fff"/></svg>