<svg xmlns="http://www.w3.org/2000/svg" width="15mm" height="15mm" viewBox="0 0 1500 1500" shape-rendering="geometricPrecision" text-rendering="geometricPrecision" image-rendering="optimizeQuality" fill-rule="evenodd" clip-rule="evenodd"><path d="M893.55 750c0 79.28-64.27 143.55-143.55 143.55-79.28 0-143.55-64.27-143.55-143.55 0-79.28 64.27-143.55 143.55-143.55 79.28 0 143.55 64.27 143.55 143.55zM750 0C335.85 0 0 335.85 0 750s335.85 750 750 750 750-335.85 750-750S1164.15 0 750 0zm428.07 927.56c-2.09 45.84-9.38 77.14-20.02 104.54a220.177 220.177 0 0 1-125.95 125.95c-27.39 10.64-58.7 17.92-104.53 20.02-45.93 2.09-60.6 2.59-177.56 2.59-116.97 0-131.63-.5-177.57-2.59-45.83-2.1-77.14-9.38-104.53-20.02a210.872 210.872 0 0 1-76.28-49.68 211.07 211.07 0 0 1-49.67-76.27c-10.64-27.39-17.93-58.7-20.01-104.53-2.12-45.94-2.61-60.61-2.61-177.57s.49-131.63 2.59-177.55c2.09-45.85 9.36-77.15 20.01-104.55a210.859 210.859 0 0 1 49.69-76.27 210.834 210.834 0 0 1 76.27-49.68c27.4-10.64 58.7-17.92 104.54-20.02 45.93-2.09 60.6-2.59 177.56-2.59 116.96 0 131.63.5 177.55 2.61 45.85 2.08 77.15 9.36 104.55 19.99a210.982 210.982 0 0 1 76.28 49.69 210.894 210.894 0 0 1 49.67 76.27c10.66 27.4 17.93 58.7 20.03 104.54 2.09 45.93 2.58 60.6 2.58 177.56 0 116.96-.49 131.63-2.59 177.56zm-92.35-431.55c-6.9-18.7-17.91-35.63-32.21-49.52a133.373 133.373 0 0 0-49.52-32.21c-15.18-5.9-37.97-12.91-79.96-14.82-45.42-2.08-59.04-2.52-174.03-2.52-115 0-128.62.43-174.03 2.5-41.99 1.93-64.8 8.94-79.96 14.83a133.317 133.317 0 0 0-49.52 32.22 133.67 133.67 0 0 0-32.23 49.52c-5.89 15.17-12.91 37.98-14.82 79.97-2.07 45.41-2.52 59.03-2.52 174.03 0 114.99.45 128.61 2.52 174.03 1.91 41.99 8.93 64.79 14.82 79.96 6.92 18.71 17.91 35.63 32.22 49.52a133.373 133.373 0 0 0 49.52 32.21c15.17 5.91 37.98 12.92 79.97 14.84 45.41 2.07 59.02 2.5 174.02 2.5 115.01 0 128.63-.43 174.03-2.5 41.99-1.92 64.79-8.93 79.97-14.84a142.582 142.582 0 0 0 81.73-81.73c5.9-15.17 12.91-37.97 14.83-79.96 2.07-45.42 2.51-59.04 2.51-174.03 0-115-.44-128.62-2.51-174.03-1.91-41.99-8.92-64.8-14.83-79.97zM750 971.15c-122.14 0-221.16-99.01-221.16-221.15S627.86 528.85 750 528.85c122.13 0 221.15 99.01 221.15 221.15S872.13 971.15 750 971.15zm229.89-399.36c-28.54 0-51.68-23.14-51.68-51.68s23.14-51.68 51.68-51.68 51.68 23.14 51.68 51.68c-.01 28.54-23.14 51.68-51.68 51.68z" fill="#999" id="Слой_x0020_1"/></svg>