<svg xmlns="http://www.w3.org/2000/svg" width="50mm" height="94.753" viewBox="0 0 5000 2507" shape-rendering="geometricPrecision" text-rendering="geometricPrecision" image-rendering="optimizeQuality" fill-rule="evenodd" clip-rule="evenodd"><defs><style>.fil0{fill:#fff}</style></defs><g id="Слой_x0020_1"><g id="_2021856716416"><path class="fil0" d="M39.64 1652.21h134.18c44.98 0 83.01 36.8 83.01 81.78 0 29.85-18.38 57.18-43.88 72.18 36.67 14.28 64.35 47.95 64.35 88.51v.01c0 54.07-45.49 98.32-99.56 98.32H0v-340.8h39.64zm14.34 43.37v95.25h99.52c26.19 0 47.62-21.43 47.62-47.63 0-26.19-21.43-47.62-47.62-47.62H53.98zm0 138.5v115.81h110.08c31.84 0 57.91-26.06 57.91-57.91 0-31.85-26.06-57.9-57.91-57.9H53.98zm319.39-181.87h238.81v43.37H427.35v95.1h161.97v43.37H427.35v115.59h184.83v43.37H373.37zm446.84 0h61.44l137.11 340.8h-56.44l-30.92-77.53H770.48l-30.93 77.53h-56.44l137.1-340.8zm94.19 220.64l-63.46-159.11-63.46 159.11H914.4zm456.26-220.37v209.26c0 88.76-64.42 141.72-143.14 141.72-78.72 0-143.13-48.56-143.13-141.72v-209.26h53.95v212.91c0 53.97 40.13 89.05 89.18 89.05 49.05 0 89.19-35.08 89.19-89.05v-212.91h53.95zm184.72-.27h173.61v43.37h-119.63v297.43h-53.98v-297.43h-119.62v-43.37zm408.64 209.62v131.18h-53.98v-131.04l-135.36-209.77h58.9l104.63 156.29 104.64-156.29h56.44zm534.25-209.62h134.19c44.98 0 83.01 36.8 83.01 81.78 0 29.85-18.39 57.18-43.89 72.18 36.67 14.28 64.35 47.95 64.35 88.51v.01c0 54.07-45.49 98.32-99.55 98.32h-177.75v-340.8h39.64zm14.35 43.37v95.25h99.52c26.18 0 47.62-21.43 47.62-47.63 0-26.19-21.43-47.62-47.62-47.62h-99.52zm0 138.5v115.81h110.08c31.84 0 57.9-26.06 57.9-57.91 0-31.85-26.05-57.9-57.9-57.9h-110.08zm479.12-189.5c106.91 0 180.55 74.42 180.55 178.03s-72.31 178.03-180.55 178.03c-108.24 0-180.55-74.42-180.55-178.03s73.63-178.03 180.55-178.03zm0 42.74c79.33 0 127.6 63.44 127.6 135.29s-49.89 135.29-127.6 135.29-127.6-63.44-127.6-135.29 48.26-135.29 127.6-135.29zm280.76-35.11h53.98v147.49h176.64v-147.49h53.98v340.8h-53.98v-149.94h-176.64v149.94h-53.98zm760.01 0h53.99l123.86 223.91 123.86-223.91h54.14v340.8h-53.99v-237.63l-107.2 188.34h-33.63l-107.04-188.07v237.36h-53.99zm490.73 0h53.99v340.8h-53.99zm-846.36 0h238.81v43.37h-184.83v95.1h161.97v43.37h-161.97v115.59h184.83v43.37h-238.81zm1124.57 0h61.44l137.11 340.8h-56.44l-30.92-77.53h-160.92l-30.93 77.53h-56.44l137.1-340.8zm94.19 220.64l-63.45-159.11-63.47 159.11h126.92zM2500-.01c33.19 131.2 107.69 191.84 210.57 210.57-133.61 22.51-187.01 105.1-210.57 210.57-21.25-112.57-74.69-194.63-210.57-210.57C2404.58 192.11 2475.77 121.69 2500-.01z"/><path class="fil0" transform="rotate(45 -329.935 2743.884) scale(.11437)" d="M0 0h635v635H0z"/><path class="fil0" transform="matrix(-.08087 .08087 .08087 .08087 3156.45 1036.94)" d="M0 0h635v635H0z"/><path class="fil0" transform="rotate(45 -1.692 3536.332) scale(.11437)" d="M0 0h635v635H0z"/><path class="fil0" transform="rotate(45 298.426 2908.906) scale(.21843)" d="M0 0h635v635H0z"/><path class="fil0" transform="rotate(45 654.123 3767.63) scale(.21843)" d="M0 0h635v635H0z"/><path class="fil0" d="M1620.46 311.53c24.95 98.61 80.94 144.19 158.27 158.27-100.42 16.91-140.56 78.99-158.27 158.27-15.97-84.62-56.14-146.29-158.27-158.27 86.55-13.87 140.06-66.8 158.27-158.27zm1759.08 0c24.95 98.61 80.94 144.19 158.27 158.27-100.43 16.91-140.56 78.99-158.27 158.27-15.97-84.62-56.14-146.29-158.27-158.27 86.55-13.87 140.06-66.8 158.27-158.27z"/><path d="M1829.36 2299.46l-16.3-2.1v-5.35c2.48-.94 5.16-1.87 8.11-2.8 2.91-.93 5.9-1.82 8.89-2.68 3.03-.85 5.98-1.55 8.93-2.1 2.95-.54 5.63-.97 8.11-1.28l4.86 2.57-20.5 97.13h1.16c2.8-5.59 5.91-11.02 9.24-16.3 3.34-5.28 6.92-9.94 10.76-13.98 3.8-4.04 7.8-7.3 12.03-9.78 4.2-2.49 8.62-3.73 13.32-3.73 8.23 0 14.79 2.87 19.61 8.62 4.85 5.74 7.26 14.67 7.26 26.79 0 11.96-1.67 23.17-5.01 33.66-3.34 10.48-8.04 19.64-14.1 27.48-6.05 7.85-13.35 14.06-21.89 18.64-8.54 4.58-18.01 6.87-28.42 6.87-7.61 0-14.71-.97-21.31-2.91-6.6-1.94-11.46-4.23-14.56-6.87l29.81-151.88zm38.83 54.04c-4.04 0-8.04 1.79-11.92 5.36-3.88 3.53-7.53 7.84-10.87 12.89a138.62 138.62 0 0 0-9.13 15.8c-2.75 5.51-5.04 10.09-6.91 13.82l-8.85 44.61c2.33 1.55 5.28 2.76 8.78 3.61 3.49.85 6.95 1.28 10.4 1.28 6.06 0 11.8-2.1 17.16-6.29 5.4-4.15 10.09-9.67 14.17-16.5 4.04-6.79 7.22-14.52 9.59-23.1 2.33-8.62 3.42-17.31 3.26-26.16.16-7.42-1.01-13.51-3.49-18.21-2.53-4.74-6.56-7.11-12.19-7.11zm66 1.87l-14.91-1.87v-5.82c.77-.62 2.06-1.4 3.84-2.33 1.79-.93 3.84-1.86 6.17-2.8 2.34-.93 4.74-1.74 7.23-2.44 2.48-.7 4.81-1.05 6.98-1.05 3.26 0 5.63.81 7.11 2.45 1.47 1.63 2.6 3.76 3.38 6.4l19.33 81.53.7 13.98h.46l5.36-13.75c2.02-4.35 4.08-9.12 6.18-14.32 2.09-5.2 4.15-10.45 6.17-15.72 2.02-5.29 3.88-10.49 5.59-15.61 1.71-5.13 3.18-9.86 4.42-14.21 0-1.71-.19-3.96-.58-6.76-.38-2.79-.81-5.59-1.28-8.38-.46-2.8-.93-5.4-1.4-7.81-.46-2.4-.85-4.07-1.16-5 2.17-.94 4.5-1.64 6.99-2.1 2.48-.47 4.89-.7 7.22-.7 4.66 0 8.77.93 12.35 2.8-4.82 19.25-11.38 38.51-19.69 57.77-8.31 19.25-17.51 38.82-27.6 58.7-8.39 16.3-16.77 28.49-25.16 36.57-8.39 8.07-17.86 12.11-28.42 12.11-2.33 0-4.54-.31-6.64-.93-2.09-.62-4.31-1.56-6.64-2.8-.15-1.71 0-3.65.47-5.82.47-2.17 1.2-4.35 2.21-6.52 1.01-2.18 2.33-4.2 3.96-6.06 1.63-1.86 3.46-3.34 5.48-4.43l18.86 9.79c1.09-.78 2.49-1.9 4.2-3.38 1.7-1.47 3.49-3.49 5.35-6.06 1.87-2.56 3.73-5.66 5.6-9.31 1.86-3.65 3.65-8.04 5.35-13.16l-27.48-102.96zm178.66 102.96h-52.41l1.4-6.76c6.05-2.49 12.11-4.35 18.17-5.59l92.01-153.51h6.05l26.33 153.51c2.79.62 5.63 1.36 8.5 2.21 2.87.86 5.47 1.98 7.8 3.38l-1.16 6.76h-59.17l1.17-6.76c6.98-2.64 13.82-4.5 20.49-5.59l-6.98-42.63h-54.75l-24.92 42.63c6.68.93 12.89 2.79 18.64 5.59l-1.17 6.76zm14.21-67.09h46.12l-7.45-49.38-.47-20.04h-.46l-9.32 20.5-28.42 48.92zm187.75.7c1.09-4.82 2.06-9.28 2.91-13.4.86-4.11 1.28-8.19 1.28-12.23 0-3.57-.81-6.6-2.44-9.08-1.63-2.48-4.23-3.73-7.81-3.73-4.19 0-8.46 1.71-12.81 5.13-4.35 3.41-8.38 7.53-12.11 12.34a137.3 137.3 0 0 0-10.13 15.03c-3.03 5.2-5.32 9.51-6.88 12.93l-12.34 59.4h-19.57l20.5-102.96-14.21-2.1.47-5.82c2.17-1.09 4.62-2.14 7.34-3.15 2.71-1.01 5.51-1.9 8.38-2.68 2.87-.77 5.67-1.4 8.39-1.86 2.71-.47 5.24-.7 7.57-.7l4.66 2.8-8.85 41.23h1.16c2.95-6.22 6.33-12 10.13-17.36 3.81-5.36 7.84-10.01 12.12-13.97 4.27-3.96 8.73-7.07 13.39-9.32s9.39-3.38 14.21-3.38c6.52 0 11.3 2.06 14.33 6.17 3.02 4.12 4.54 9.28 4.54 15.49 0 3.42-.39 7.69-1.17 12.81-.77 5.13-1.71 9.94-2.79 14.45l-13.28 57.3h17.24v6.06c-3.11 2.48-6.88 4.5-11.3 6.05-4.43 1.56-8.74 2.33-12.93 2.33-4.5 0-7.61-.93-9.32-2.79-1.7-1.86-2.56-3.89-2.56-6.06 0-2.95.39-6.17 1.17-9.66.77-3.5 1.55-7.03 2.33-10.6l8.38-38.67zm82.69 54.74c4.2 0 8.39-1.98 12.58-5.94 4.2-3.96 8.16-8.74 11.88-14.29 3.73-5.59 7.07-11.41 10.02-17.43 2.95-6.06 5.28-11.07 6.99-15.1l7.45-39.72c-2.17-1.55-4.27-2.64-6.29-3.26-2.01-.62-4.81-.93-8.38-.93-7.15 0-13.63 2.21-19.45 6.64-5.83 4.38-10.8 10.09-14.91 17.04-4.12 6.99-7.3 14.75-9.55 23.26-2.25 8.54-3.38 16.88-3.38 25.07 0 7.93.97 14.02 2.91 18.25 1.94 4.27 5.32 6.41 10.13 6.41zm36.81-34.01c-2.02 5.59-4.54 11.26-7.57 17-3.03 5.75-6.52 10.95-10.48 15.61-3.96 4.66-8.35 8.46-13.16 11.41-4.82 2.95-9.94 4.43-15.38 4.43-16.15 0-24.23-11.72-24.23-35.17 0-10.87 1.56-21.47 4.66-31.8 3.11-10.33 7.61-19.53 13.51-27.6 5.91-8.08 13.09-14.56 21.55-19.45 8.46-4.9 18.06-7.34 28.77-7.34 3.88 0 6.99.35 9.32 1.05 2.33.7 5.12 1.74 8.38 3.14 6.22-3.26 12.74-4.89 19.57-4.89l-20.96 106.22h17v5.9c-3.1 2.53-6.83 4.58-11.18 6.18-4.35 1.59-8.62 2.36-12.81 2.36-4.51 0-7.73-.97-9.67-2.91-1.94-1.94-2.91-4-2.91-6.17 0-2.8.54-7.38 1.63-13.74 1.09-6.37 2.72-14.45 4.89-24.23h-.93zm103.19 18.05c-.15-3.72-1.2-6.91-3.14-9.63-1.94-2.68-4.43-5.28-7.46-7.76-3.02-2.45-6.25-4.93-9.66-7.42a80.497 80.497 0 0 1-9.67-8.27c-3.03-3.02-5.51-6.52-7.45-10.48-1.95-3.96-2.92-8.73-2.92-14.32s1.09-10.49 3.27-14.68c2.17-4.19 5.16-7.69 8.96-10.48 3.81-2.8 8.39-4.93 13.75-6.41 5.35-1.47 11.22-2.21 17.58-2.21 4.04 0 8.58.35 13.63 1.05 5.05.7 9.82 2.37 14.33 5.01 0 1.7-.31 3.68-.93 5.94-.63 2.25-1.44 4.42-2.45 6.52a42.637 42.637 0 0 1-3.38 5.82c-1.24 1.79-2.56 2.99-3.96 3.61l-17.24-17.7c-3.18.15-6.17.54-8.89 1.16-2.75.63-5.16 1.63-7.18 2.99-2.06 1.4-3.65 3.22-4.81 5.48-1.13 2.21-1.71 5.04-1.71 8.42 0 4.04 1.01 7.46 2.99 10.33 2.02 2.83 4.5 5.55 7.49 8.11 2.99 2.53 6.21 5.01 9.67 7.42a69.33 69.33 0 0 1 9.67 8.15c2.99 3.03 5.47 6.52 7.49 10.48 1.98 3.96 2.99 8.66 2.99 14.1 0 5.59-1.28 10.56-3.85 14.91-2.56 4.34-6.05 8.03-10.48 11.06-4.42 3.03-9.55 5.32-15.37 6.87-5.83 1.55-12 2.33-18.52 2.33s-12.47-.66-17.82-1.98c-5.36-1.32-9.59-2.99-12.7-5.01.78-4.04 1.71-7.96 2.8-11.76 1.08-3.81 3.34-7.34 6.75-10.6l20.97 19.1c3.26 0 6.48-.39 9.67-1.16 3.18-.78 6.05-2.02 8.61-3.69 2.57-1.71 4.66-3.81 6.29-6.25 1.63-2.49 2.53-5.51 2.68-9.05zm50.55-83c3.11-1.79 6.4-3.38 9.9-4.82 3.49-1.43 6.95-2.56 10.36-3.38l3.73-17.7c2.18-1.71 4.7-3.22 7.57-4.54 2.88-1.32 5.86-2.6 8.97-3.84l4.89 2.79-5.59 25.63h28.89c.31 1.94.31 3.95 0 6.05-.31 2.1-1.09 4.12-2.33 6.06h-28.89l-14.67 67.2c-.62 2.95-1.09 5.55-1.4 7.77-.31 2.25-.47 4.31-.47 6.13 0 4.04 1.17 6.99 3.5 8.81 2.33 1.87 4.89 2.8 7.69 2.8 3.88 0 8.03-.74 12.46-2.21 4.43-1.48 8.5-3.15 12.23-5.01l2.56 4.19c-1.4 2.02-3.49 4.04-6.29 6.06-2.79 2.02-5.94 3.88-9.43 5.59-3.5 1.71-7.15 3.1-10.95 4.19-3.8 1.09-7.42 1.63-10.83 1.63-6.83 0-12.2-1.55-16.08-4.62-3.88-3.11-5.82-7.92-5.82-14.4 0-2.18.19-4.54.58-7.19.39-2.64.9-5.31 1.52-8.11l15.37-72.83h-17.7l.23-6.25zm109.95 98.96c4.19 0 8.39-1.98 12.58-5.94 4.19-3.96 8.15-8.74 11.88-14.29 3.72-5.59 7.06-11.41 10.01-17.43 2.95-6.06 5.28-11.07 6.99-15.1l7.46-39.72c-2.18-1.55-4.28-2.64-6.29-3.26-2.02-.62-4.82-.93-8.39-.93-7.14 0-13.63 2.21-19.45 6.64-5.82 4.38-10.79 10.09-14.91 17.04-4.11 6.99-7.3 14.75-9.55 23.26-2.25 8.54-3.38 16.88-3.38 25.07 0 7.93.98 14.02 2.91 18.25 1.95 4.27 5.32 6.41 10.14 6.41zm36.8-34.01c-2.02 5.59-4.54 11.26-7.57 17-3.03 5.75-6.52 10.95-10.48 15.61-3.96 4.66-8.35 8.46-13.16 11.41-4.81 2.95-9.94 4.43-15.38 4.43-16.14 0-24.22-11.72-24.22-35.17 0-10.87 1.55-21.47 4.66-31.8 3.1-10.33 7.61-19.53 13.51-27.6 5.9-8.08 13.08-14.56 21.55-19.45 8.46-4.9 18.05-7.34 28.76-7.34 3.89 0 6.99.35 9.32 1.05 2.33.7 5.13 1.74 8.39 3.14 6.21-3.26 12.73-4.89 19.56-4.89l-20.96 106.22h17v5.9c-3.1 2.53-6.83 4.58-11.18 6.18-4.35 1.59-8.62 2.36-12.81 2.36-4.5 0-7.72-.97-9.67-2.91-1.94-1.94-2.91-4-2.91-6.17 0-2.8.55-7.38 1.63-13.74 1.09-6.37 2.72-14.45 4.89-24.23h-.93zm103.2 18.05c-.16-3.72-1.21-6.91-3.15-9.63-1.94-2.68-4.42-5.28-7.45-7.76-3.03-2.45-6.25-4.93-9.67-7.42a80.497 80.497 0 0 1-9.67-8.27c-3.03-3.02-5.51-6.52-7.45-10.48-1.94-3.96-2.91-8.73-2.91-14.32s1.09-10.49 3.26-14.68a29.82 29.82 0 0 1 8.97-10.48c3.8-2.8 8.38-4.93 13.74-6.41 5.36-1.47 11.22-2.21 17.59-2.21 4.03 0 8.58.35 13.62 1.05 5.05.7 9.83 2.37 14.33 5.01 0 1.7-.31 3.68-.93 5.94a38.78 38.78 0 0 1-2.45 6.52c-1.01 2.09-2.13 4.04-3.38 5.82-1.24 1.79-2.56 2.99-3.96 3.61l-17.23-17.7c-3.19.15-6.18.54-8.89 1.16-2.76.63-5.17 1.63-7.19 2.99-2.05 1.4-3.65 3.22-4.81 5.48-1.13 2.21-1.71 5.04-1.71 8.42 0 4.04 1.01 7.46 2.99 10.33 2.02 2.83 4.51 5.55 7.49 8.11 2.99 2.53 6.22 5.01 9.67 7.42 3.46 2.41 6.68 5.12 9.67 8.15 2.99 3.03 5.47 6.52 7.49 10.48 1.98 3.96 2.99 8.66 2.99 14.1 0 5.59-1.28 10.56-3.84 14.91-2.57 4.34-6.06 8.03-10.49 11.06-4.42 3.03-9.55 5.32-15.37 6.87-5.82 1.55-12 2.33-18.52 2.33s-12.46-.66-17.82-1.98c-5.36-1.32-9.59-2.99-12.69-5.01.77-4.04 1.71-7.96 2.79-11.76 1.09-3.81 3.34-7.34 6.76-10.6l20.96 19.1c3.26 0 6.49-.39 9.67-1.16 3.18-.78 6.06-2.02 8.62-3.69 2.56-1.71 4.66-3.81 6.29-6.25 1.63-2.49 2.52-5.51 2.68-9.05zm58.46-75.35l-14.9-1.87v-5.82c.77-.62 2.05-1.4 3.84-2.33 1.78-.93 3.84-1.86 6.17-2.8 2.33-.93 4.74-1.74 7.22-2.44 2.49-.7 4.82-1.05 6.99-1.05 3.26 0 5.63.81 7.11 2.45 1.47 1.63 2.6 3.76 3.37 6.4l19.34 81.53.7 13.98h.46l5.36-13.75c2.02-4.35 4.08-9.12 6.17-14.32 2.1-5.2 4.16-10.45 6.18-15.72 2.01-5.29 3.88-10.49 5.59-15.61 1.7-5.13 3.18-9.86 4.42-14.21 0-1.71-.19-3.96-.58-6.76-.39-2.79-.82-5.59-1.28-8.38-.47-2.8-.93-5.4-1.4-7.81-.46-2.4-.85-4.07-1.16-5 2.17-.94 4.5-1.64 6.98-2.1 2.49-.47 4.9-.7 7.23-.7 4.65 0 8.77.93 12.34 2.8-4.81 19.25-11.37 38.51-19.68 57.77-8.31 19.25-17.51 38.82-27.61 58.7-8.38 16.3-16.77 28.49-25.15 36.57-8.39 8.07-17.86 12.11-28.42 12.11-2.33 0-4.54-.31-6.64-.93-2.1-.62-4.31-1.56-6.64-2.8-.15-1.71 0-3.65.47-5.82.46-2.17 1.2-4.35 2.21-6.52 1.01-2.18 2.33-4.2 3.96-6.06 1.63-1.86 3.45-3.34 5.47-4.43l18.87 9.79c1.09-.78 2.49-1.9 4.19-3.38 1.71-1.47 3.5-3.49 5.36-6.06 1.87-2.56 3.73-5.66 5.59-9.31 1.87-3.65 3.65-8.04 5.36-13.16l-27.49-102.96zm137.44 102.96l1.16-6.76c6.37-2.64 13.2-4.5 20.5-5.59l29.12-138.13c-3.42-.78-6.64-1.67-9.67-2.68-3.03-1.01-5.78-2.06-8.27-3.15l1.63-6.75h23.53c2.64 0 5.78-.08 9.43-.24 3.65-.15 7.38-.35 11.18-.58 3.81-.23 7.5-.46 11.07-.7 3.57-.23 6.52-.35 8.85-.35 12.42 0 22.98 1.48 31.68 4.43 8.7 2.95 15.72 6.95 21.08 12 5.36 5.04 9.24 11.02 11.65 17.93s3.61 14.33 3.61 22.25-.66 16.19-1.98 24.81c-1.32 8.61-3.53 17-6.64 25.15-3.1 8.16-7.26 15.88-12.46 23.18-5.2 7.3-11.73 13.71-19.57 19.22-7.84 5.51-17.12 9.9-27.84 13.16-10.71 3.26-23.06 4.89-37.03 4.89-2.33 0-5.09-.11-8.27-.35-3.19-.23-6.56-.46-10.14-.7l-10.71-.69c-3.57-.24-6.83-.35-9.78-.35h-22.13zm93.72-152.81c-4.04 0-8.2.07-12.39.23-4.23.15-7.41.39-9.59.7l-29.12 141.16c1.56.16 3.46.27 5.67.35 2.25.08 4.51.16 6.76.23 2.21.08 4.23.16 6.02.24 1.78.07 3.1.03 4.03-.12 14.56.15 26.71-2.72 36.54-8.62 9.82-5.9 17.7-13.63 23.64-23.18 5.94-9.55 10.17-20.26 12.62-32.14 2.48-11.88 3.73-23.8 3.73-35.76 0-6.06-.7-11.72-2.1-17-1.4-5.28-3.92-9.83-7.5-13.63-3.57-3.81-8.46-6.83-14.59-9.09-6.18-2.25-14.06-3.37-23.72-3.37z" fill="#fff" fill-rule="nonzero"/></g></g></svg>