<svg xmlns="http://www.w3.org/2000/svg" width="78.448" height="43.075" viewBox="0 0 2075.6 1139.7" shape-rendering="geometricPrecision" text-rendering="geometricPrecision" image-rendering="optimizeQuality" fill-rule="evenodd" clip-rule="evenodd"><defs><style>.fil0{fill:#000}</style></defs><g id="Слой_x0020_1"><g id="_2021871078800"><path class="fil0" d="M1037.8.02c33.19 131.2 107.69 191.84 210.57 210.57-133.61 22.51-187.01 105.1-210.57 210.57-21.25-112.57-74.69-194.63-210.57-210.57C942.38 192.14 1013.57 121.72 1037.8.02z"/><path class="fil0" transform="rotate(45 -1061.087 978.83) scale(.11437)" d="M0 0h635v635H0z"/><path class="fil0" transform="matrix(-.08087 .08087 .08087 .08087 1694.25 1036.97)" d="M0 0h635v635H0z"/><path class="fil0" transform="rotate(45 -732.846 1771.274) scale(.11437)" d="M0 0h635v635H0z"/><path class="fil0" transform="rotate(45 -432.716 1143.89) scale(.21843)" d="M0 0h635v635H0z"/><path class="fil0" transform="rotate(45 -77.018 2002.613) scale(.21843)" d="M0 0h635v635H0z"/><path class="fil0" d="M158.26 311.56c24.95 98.61 80.94 144.19 158.27 158.27-100.42 16.91-140.56 78.99-158.27 158.27-15.97-84.62-56.14-146.29-158.27-158.27 86.55-13.87 140.06-66.8 158.27-158.27zm1759.08 0c24.95 98.61 80.94 144.19 158.27 158.27-100.43 16.91-140.56 78.99-158.27 158.27-15.97-84.62-56.14-146.29-158.27-158.27 86.55-13.87 140.06-66.8 158.27-158.27z"/></g></g></svg>