<svg xmlns="http://www.w3.org/2000/svg" width="543.848" height="298.609" viewBox="0 0 14389.3 7900.7" shape-rendering="geometricPrecision" text-rendering="geometricPrecision" image-rendering="optimizeQuality" fill-rule="evenodd" clip-rule="evenodd"><defs><style>.fil0{fill:#fefefe}</style></defs><g id="Слой_x0020_1"><g id="_1880271619904"><path class="fil0" d="M7194.65 0c230.09 909.53 746.59 1329.89 1459.79 1459.79-926.26 156.03-1296.46 728.63-1459.79 1459.8-147.32-780.44-517.83-1349.33-1459.79-1459.8C6533.13 1331.86 7026.64 843.71 7194.65 0z"/><path class="fil0" transform="rotate(45 -7355.691 6785.63) scale(.79286)" d="M0 0h635v635H0z"/><path class="fil0" transform="matrix(-.56063 .56063 .56063 .56063 11745.5 7188.69)" d="M0 0h635v635H0z"/><path class="fil0" transform="rotate(45 -5080.185 12279.187) scale(.79286)" d="M0 0h635v635H0z"/><path class="fil0" transform="rotate(45 -2999.623 7930.038) scale(1.51427)" d="M0 0h635v635H0z"/><path class="fil0" transform="rotate(45 -533.748 13883.175) scale(1.51427)" d="M0 0h635v635H0z"/><path class="fil0" d="M1097.2 2159.76c172.94 683.61 561.15 999.56 1097.2 1097.2-696.19 117.26-974.44 547.64-1097.2 1097.19C986.48 3767.57 708 3339.99.01 3256.96 600 3160.8 970.92 2793.9 1097.2 2159.76zm12194.89 0c172.94 683.61 561.15 999.56 1097.2 1097.2-696.19 117.26-974.44 547.64-1097.2 1097.19-110.72-586.58-389.2-1014.16-1097.19-1097.19 599.99-96.16 970.91-463.06 1097.19-1097.2z"/></g></g></svg>