<svg xmlns="http://www.w3.org/2000/svg" width="63.273" height="57.29" viewBox="0 0 1674.1 1515.8" shape-rendering="geometricPrecision" text-rendering="geometricPrecision" image-rendering="optimizeQuality" fill-rule="evenodd" clip-rule="evenodd"><path d="M420.03 876.61L627.03 0h-292.2L79.15 840.08C18.25 1016.6-.01 1089.65-.01 1187.07c0 182.63 127.84 328.73 322.69 328.73 176.51 0 316.5-133.95 316.5-328.73 0-152.21-85.2-267.83-219.15-310.46zm1034.93 0L1661.89 0h-292.2l-255.68 840.08c-60.83 176.52-79.09 249.57-79.09 346.99 0 182.63 127.84 328.73 322.61 328.73 176.52 0 316.58-133.95 316.58-328.73 0-152.21-85.27-267.83-219.15-310.46z" fill-rule="nonzero" id="Слой_x0020_1"/></svg>