<svg xmlns="http://www.w3.org/2000/svg" width="15mm" height="15mm" viewBox="0 0 1500 1500" shape-rendering="geometricPrecision" text-rendering="geometricPrecision" image-rendering="optimizeQuality" fill-rule="evenodd" clip-rule="evenodd"><path d="M750 .02c414.21 0 749.98 335.78 749.98 749.98 0 414.2-335.77 749.98-749.98 749.98C335.8 1499.98.02 1164.2.02 750 .02 335.8 335.8.02 750 .02zm428.98 526.44c6.76-22.52 0-39.07-32.14-39.07h-106.31c-27.03 0-39.49 14.3-46.25 30.07 0 0-54.06 131.77-130.63 217.36-24.78 24.76-36.05 32.65-49.57 32.65-6.74 0-16.53-7.89-16.53-30.41v-210.6c0-27.03-7.84-39.07-30.37-39.07H600.13c-16.88 0-27.04 12.54-27.04 24.44 0 25.62 38.29 31.53 42.23 103.6v156.55c0 34.32-6.2 40.55-19.72 40.55-36.03 0-123.69-132.37-175.68-283.82-10.2-29.42-20.4-41.32-47.58-41.32H266.03c-30.36 0-36.44 14.3-36.44 30.07 0 28.15 36.03 167.79 167.8 352.5 87.85 126.13 211.61 194.51 324.23 194.51 67.57 0 75.94-15.2 75.94-41.36v-95.33c0-30.36 6.39-36.43 27.79-36.43 15.77 0 42.81 7.89 105.87 68.7 72.07 72.08 83.95 104.42 124.49 104.42h106.31c30.38 0 45.56-15.2 36.8-45.17-9.59-29.86-44-73.19-89.66-124.57-24.78-29.28-61.94-60.82-73.21-76.58-15.76-20.27-11.26-29.28 0-47.3 0 0 129.52-182.44 143.03-244.39z" fill="#fff"/></svg>