<svg xmlns="http://www.w3.org/2000/svg" width="60mm" height="24.661" viewBox="0 0 6000 652.5" shape-rendering="geometricPrecision" text-rendering="geometricPrecision" image-rendering="optimizeQuality" fill-rule="evenodd" clip-rule="evenodd"><defs><style>.fil0,.fil1{fill:#000}</style></defs><g id="Слой_x0020_1"><g id="_2021159463280"><path class="fil0" d="M1419.2 302.37h127.08c42.61 0 78.62 34.86 78.62 77.46 0 28.28-17.41 54.16-41.56 68.37 34.73 13.53 60.95 45.41 60.95 83.83 0 51.21-43.09 93.13-94.3 93.13h-168.34V302.37h37.55zm13.58 41.08v90.21h94.26c24.8 0 45.1-20.29 45.1-45.1 0-24.81-20.3-45.11-45.1-45.11h-94.26zm0 131.18v109.69h104.26c30.16 0 54.84-24.68 54.84-54.85 0-30.16-24.67-54.84-54.84-54.84h-104.26zm302.5-172.26h226.19v41.08h-175.06v90.07h153.4v41.08h-153.4v109.48h175.06v41.08h-226.19zm423.22 0h58.19l129.85 322.79h-53.46l-29.28-73.43h-152.41l-29.29 73.43h-53.46l129.86-322.79zm89.2 208.98l-60.1-150.7-60.11 150.7h120.21z"/><path class="fil1" d="M2679.83 302.64v198.19c0 84.06-61.01 134.22-135.56 134.22-74.56 0-135.57-45.99-135.57-134.22V302.64h51.1v201.65c0 51.11 38.01 84.34 84.47 84.34 46.45 0 84.46-33.23 84.46-84.34V302.64h51.1z"/><path class="fil0" d="M2854.79 302.37h164.43v41.08h-113.3v281.71h-51.13V343.45h-113.3v-41.08zm387.03 198.54v124.25h-51.13V501.05l-128.2-198.68h55.78l99.11 148.03 99.1-148.03h53.45zm388.74-198.54h127.09c42.6 0 78.62 34.86 78.62 77.46 0 28.28-17.41 54.16-41.57 68.37 34.73 13.53 60.95 45.41 60.95 83.83 0 51.21-43.08 93.13-94.29 93.13h-168.34V302.37h37.54zm13.59 41.08v90.21h94.25c24.8 0 45.1-20.29 45.1-45.1 0-24.81-20.29-45.11-45.1-45.11h-94.25zm0 131.18v109.69h104.25c30.16 0 54.85-24.68 54.85-54.85 0-30.16-24.68-54.84-54.85-54.84h-104.25z"/><path class="fil1" d="M4097.93 295.15c101.26 0 171.01 70.49 171.01 168.62 0 98.13-68.49 168.62-171.01 168.62s-171.01-70.49-171.01-168.62c0-98.13 69.75-168.62 171.01-168.62zm0 40.48c75.14 0 120.85 60.08 120.85 128.14 0 68.05-47.25 128.14-120.85 128.14s-120.85-60.09-120.85-128.14c0-68.06 45.71-128.14 120.85-128.14z"/><path class="fil0" d="M4363.84 302.37h51.13v139.69h167.3V302.37h51.13v322.79h-51.13V483.14h-167.3v142.02h-51.13zm719.83 0h51.13l117.31 212.07 117.31-212.07h51.28v322.79h-51.13V400.09l-101.53 178.38h-31.86L5134.8 400.35v224.81h-51.13zm464.78.01h51.13v322.78h-51.13zm-801.61-.01h226.19v41.08h-175.06v90.07h153.4v41.08h-153.4v109.48h175.06v41.08h-226.19zm1065.11 0h58.19L6000 625.16h-53.46l-29.29-73.43h-152.4l-29.3 73.43h-53.46l129.86-322.79zm89.2 208.98l-60.09-150.7-60.11 150.7h120.2z"/><path class="fil0" transform="rotate(44.999 -31.75 1098.463) scale(.14259)" d="M0 0h635v635H0z"/><path class="fil0" d="M574.95-.02c20.07 79.32 65.11 115.98 127.31 127.3-80.78 13.61-113.06 63.55-127.31 127.31-12.84-68.06-45.15-117.67-127.3-127.31 69.61-11.15 112.65-53.72 127.3-127.3zM99.1 167.84c15.62 61.75 50.69 90.29 99.1 99.1-62.88 10.6-88.01 49.47-99.1 99.11-10-52.98-35.15-91.61-99.1-99.11 54.19-8.68 87.7-41.82 99.1-99.1z"/><path class="fil0" transform="rotate(44.999 -224.194 633.838) scale(.14259)" d="M0 0h635v635H0z"/><path class="fil0" transform="rotate(45 -215.347 1411.687) scale(.09666)" d="M0 0h635v635H0z"/><path class="fil0" transform="rotate(45 -395.423 976.944) scale(.09666)" d="M0 0h635v635H0z"/><path class="fil0" transform="rotate(45 -575.618 541.916) scale(.09666)" d="M0 0h635v635H0z"/><path class="fil0" d="M1050.88 167.84c15.62 61.75 50.68 90.28 99.1 99.1-62.89 10.6-88.02 49.47-99.1 99.11-10.01-52.99-35.16-91.6-99.11-99.11 54.19-8.68 87.7-41.82 99.11-99.1z"/></g></g></svg>