<?xml version="1.0" standalone="no"?>
<!DOCTYPE svg PUBLIC "-//W3C//DTD SVG 20010904//EN"
 "http://www.w3.org/TR/2001/REC-SVG-20010904/DTD/svg10.dtd">
<svg version="1.0" xmlns="http://www.w3.org/2000/svg"
 width="2000.000000pt" height="2000.000000pt" viewBox="0 0 2000.000000 2000.000000"
 preserveAspectRatio="xMidYMid meet">
<metadata>
Created by potrace 1.11, written by Peter Selinger 2001-2013
</metadata>
<g transform="translate(0.000000,2000.000000) scale(0.100000,-0.100000)"
fill="#000000" stroke="none">
<path d="M5567 18154 c-1 -1 -67 -5 -147 -8 -80 -4 -154 -9 -165 -11 -11 -2
-49 -7 -85 -10 -81 -8 -147 -15 -180 -20 -166 -26 -336 -58 -405 -76 -22 -6
-47 -12 -55 -14 -8 -2 -51 -13 -95 -24 -44 -12 -88 -24 -97 -26 -28 -6 -321
-104 -343 -114 -11 -5 -49 -21 -85 -35 -36 -13 -82 -32 -102 -41 -21 -8 -40
-16 -43 -16 -13 -2 -284 -138 -370 -186 -204 -113 -508 -316 -611 -408 -6 -5
-29 -23 -50 -40 -216 -169 -510 -472 -708 -730 -42 -55 -80 -104 -84 -110 -5
-5 -44 -64 -89 -130 -183 -271 -360 -617 -467 -910 -27 -71 -54 -146 -62 -165
-48 -119 -166 -605 -189 -780 -3 -25 -8 -56 -10 -70 -4 -26 -8 -60 -20 -165
-3 -33 -8 -73 -10 -90 -29 -251 -19 -945 20 -1400 14 -162 17 -193 20 -215 2
-14 7 -52 10 -85 3 -33 7 -71 9 -85 2 -14 7 -52 11 -85 7 -60 11 -93 19 -130
2 -11 7 -42 10 -70 7 -51 12 -81 21 -125 3 -14 8 -41 11 -60 60 -360 187 -820
329 -1195 62 -164 73 -189 138 -335 73 -165 187 -389 297 -585 123 -218 388
-609 582 -860 38 -49 251 -310 257 -315 3 -3 33 -36 66 -75 33 -38 64 -75 70
-81 5 -6 37 -42 70 -79 246 -278 697 -733 1075 -1085 68 -63 135 -126 150
-140 69 -65 230 -211 270 -246 42 -36 82 -72 150 -134 75 -69 115 -104 225
-200 66 -58 129 -114 141 -125 11 -11 36 -33 55 -49 72 -62 185 -161 208 -183
13 -12 36 -33 53 -45 16 -13 46 -39 67 -58 21 -19 60 -54 87 -77 27 -22 58
-49 69 -60 11 -10 52 -45 90 -78 39 -33 72 -62 75 -65 3 -3 34 -30 70 -60 36
-30 67 -57 70 -60 9 -9 155 -136 184 -161 16 -13 37 -31 46 -39 8 -8 45 -40
80 -70 62 -52 197 -169 267 -231 18 -16 65 -57 105 -91 40 -34 75 -65 78 -68
3 -3 52 -46 110 -95 58 -50 110 -94 116 -100 21 -19 462 -405 542 -474 30 -25
68 -60 85 -76 18 -17 124 -111 237 -210 113 -99 210 -184 215 -190 6 -6 51
-47 100 -91 50 -43 92 -81 95 -84 3 -3 46 -41 95 -85 50 -44 95 -84 101 -90 6
-5 48 -44 94 -85 45 -41 88 -80 94 -85 6 -6 63 -57 126 -114 63 -57 142 -129
175 -160 33 -31 112 -103 175 -161 63 -58 135 -124 160 -146 25 -23 61 -56 80
-74 70 -65 352 -328 460 -430 223 -211 283 -265 290 -265 7 0 122 104 289 264
50 47 231 217 311 291 19 18 65 60 101 94 36 33 114 106 174 161 60 55 138
127 174 161 36 33 116 105 176 160 61 54 115 103 121 109 66 61 209 192 227
207 12 11 36 32 52 46 17 15 75 68 130 117 55 49 102 92 105 95 3 3 25 23 50
44 25 22 83 74 130 116 47 42 150 134 230 205 257 227 283 250 294 260 6 6
100 89 210 184 109 95 213 185 230 200 89 79 230 202 501 436 165 142 302 262
305 265 3 3 52 45 110 94 58 50 110 95 115 100 6 6 73 65 150 131 77 65 147
126 156 135 8 8 40 35 69 60 30 25 64 54 76 65 28 26 62 56 149 130 39 33 72
62 75 65 3 3 41 37 85 75 135 118 147 130 159 140 6 6 70 62 141 125 72 63
135 119 141 125 6 5 46 42 90 80 43 39 90 81 105 95 15 14 40 36 56 49 52 45
346 317 577 534 92 88 479 472 581 578 91 95 135 142 289 309 72 78 267 305
372 435 472 577 852 1206 1084 1790 17 44 36 89 41 100 12 27 75 203 104 290
62 189 116 381 169 605 13 54 66 313 71 350 4 24 8 47 10 50 2 4 7 29 11 56 3
27 7 56 9 64 1 8 6 40 10 70 4 30 9 64 11 75 2 11 9 58 14 105 6 47 13 96 15
110 2 14 7 59 11 100 3 41 8 89 9 105 2 17 6 66 10 110 3 44 8 105 10 135 30
343 35 1024 10 1250 -4 36 -16 160 -20 195 -3 33 -16 117 -26 170 -5 28 -11
64 -13 80 -3 25 -36 188 -51 260 -3 11 -18 70 -35 130 -16 61 -32 117 -34 125
-83 307 -288 769 -474 1070 -128 208 -320 473 -427 590 -18 19 -56 62 -85 95
-121 137 -375 376 -506 475 -32 25 -68 53 -78 63 -11 9 -78 58 -150 108 -357
251 -785 464 -1196 597 -118 38 -371 108 -429 119 -14 2 -46 9 -71 14 -25 6
-56 13 -70 15 -14 2 -41 7 -60 11 -19 4 -42 8 -50 9 -8 1 -62 9 -120 17 -58 9
-134 19 -170 22 -36 3 -83 8 -105 10 -168 17 -545 23 -705 11 -304 -23 -576
-62 -760 -110 -8 -2 -45 -11 -82 -20 -235 -55 -569 -172 -818 -288 -551 -256
-1028 -593 -1475 -1042 -183 -184 -214 -218 -346 -376 -112 -135 -132 -160
-206 -260 -26 -36 -50 -67 -53 -70 -12 -11 -191 -281 -239 -359 l-50 -82 -24
38 c-13 21 -46 73 -73 116 -105 168 -413 583 -499 673 -11 12 -45 50 -75 85
-152 177 -478 486 -679 644 -35 28 -87 68 -115 90 -78 62 -287 204 -416 282
-427 259 -861 439 -1340 557 -80 19 -165 38 -190 41 -24 4 -47 8 -50 10 -3 2
-23 6 -45 9 -22 4 -65 10 -95 16 -191 32 -450 52 -702 54 -71 0 -130 0 -131 0z"/>
</g>
</svg>
